HIERARCHY
ROOT Hips
{
    OFFSET   0.000000   0.000000   0.000000
    CHANNELS 6 Xposition Yposition Zposition Zrotation Xrotation Yrotation
    JOINT Chest
    {
        OFFSET   0.000000   8.007240   0.000000
        CHANNELS 3 Zrotation Xrotation Yrotation
        JOINT Chest2
        {
            OFFSET   0.000000  22.077100   0.000000
            CHANNELS 3 Zrotation Xrotation Yrotation
            JOINT Neck
            {
                OFFSET   0.000000  23.254800   0.000000
                CHANNELS 3 Zrotation Xrotation Yrotation
                JOINT Head
                {
                    OFFSET   0.000000  14.370000   1.956600
                    CHANNELS 3 Zrotation Xrotation Yrotation
                    End Site
                    {
                        OFFSET   0.000000  19.566000   0.000000
                    }
                }
            }
            JOINT LeftCollar
            {
                OFFSET   3.911900  19.017000  -0.467064
                CHANNELS 3 Zrotation Xrotation Yrotation
                JOINT LeftShoulder
                {
                    OFFSET  10.383700   0.000000   0.000000
                    CHANNELS 3 Zrotation Xrotation Yrotation
                    JOINT LeftElbow
                    {
                        OFFSET  26.662100   0.001476   0.000517
                        CHANNELS 3 Zrotation Xrotation Yrotation
                        JOINT LeftWrist
                        {
                            OFFSET  28.869000  -0.000025  -0.000106
                            CHANNELS 3 Zrotation Xrotation Yrotation
                            JOINT LeftFinger0
                            {
                                OFFSET   2.044660  -2.323460   3.252850
                                CHANNELS 3 Zrotation Xrotation Yrotation
                                JOINT LeftFinger01
                                {
                                    OFFSET   3.088130   0.000000   0.000000
                                    CHANNELS 3 Zrotation Xrotation Yrotation
                                    JOINT LeftFinger02
                                    {
                                        OFFSET   2.639460   0.000000   0.000000
                                        CHANNELS 3 Zrotation Xrotation Yrotation
                                        End Site
                                        {
                                            OFFSET   2.582190   0.000000   0.000000
                                        }
                                    }
                                }
                            }
                            JOINT LeftFinger1
                            {
                                OFFSET   8.364480   0.000000   3.252850
                                CHANNELS 3 Zrotation Xrotation Yrotation
                                JOINT LeftFinger11
                                {
                                    OFFSET   4.646930   0.000000   0.000000
                                    CHANNELS 3 Zrotation Xrotation Yrotation
                                    JOINT LeftFinger12
                                    {
                                        OFFSET   2.323460   0.000000   0.000000
                                        CHANNELS 3 Zrotation Xrotation Yrotation
                                        End Site
                                        {
                                            OFFSET   2.273050   0.000000   0.000000
                                        }
                                    }
                                }
                            }
                            JOINT LeftFinger2
                            {
                                OFFSET   8.364490   0.000015   1.078090
                                CHANNELS 3 Zrotation Xrotation Yrotation
                                JOINT LeftFinger21
                                {
                                    OFFSET   5.111620   0.000000   0.000000
                                    CHANNELS 3 Zrotation Xrotation Yrotation
                                    JOINT LeftFinger22
                                    {
                                        OFFSET   2.788160   0.000016   0.000000
                                        CHANNELS 3 Zrotation Xrotation Yrotation
                                        End Site
                                        {
                                            OFFSET   2.727660   0.000000   0.000000
                                        }
                                    }
                                }
                            }
                            JOINT LeftFinger3
                            {
                                OFFSET   7.899780   0.000017  -1.078090
                                CHANNELS 3 Zrotation Xrotation Yrotation
                                JOINT LeftFinger31
                                {
                                    OFFSET   4.646930   0.000000   0.000000
                                    CHANNELS 3 Zrotation Xrotation Yrotation
                                    JOINT LeftFinger32
                                    {
                                        OFFSET   2.323470   0.000000   0.000000
                                        CHANNELS 3 Zrotation Xrotation Yrotation
                                        End Site
                                        {
                                            OFFSET   2.273050   0.000000   0.000000
                                        }
                                    }
                                }
                            }
                            JOINT LeftFinger4
                            {
                                OFFSET   7.435090   0.000000  -3.252850
                                CHANNELS 3 Zrotation Xrotation Yrotation
                                JOINT LeftFinger41
                                {
                                    OFFSET   3.717550   0.000000   0.000000
                                    CHANNELS 3 Zrotation Xrotation Yrotation
                                    JOINT LeftFinger42
                                    {
                                        OFFSET   1.858770   0.000000   0.000000
                                        CHANNELS 3 Zrotation Xrotation Yrotation
                                        End Site
                                        {
                                            OFFSET   1.818440   0.000000   0.000000
                                        }
                                    }
                                }
                            }
                        }
                    }
                }
            }
            JOINT RightCollar
            {
                OFFSET  -3.911900  19.017000  -0.467063
                CHANNELS 3 Zrotation Xrotation Yrotation
                JOINT RightShoulder
                {
                    OFFSET -10.383700   0.000019   0.000000
                    CHANNELS 3 Zrotation Xrotation Yrotation
                    JOINT RightElbow
                    {
                        OFFSET -26.662100   0.001175   0.000102
                        CHANNELS 3 Zrotation Xrotation Yrotation
                        JOINT RightWrist
                        {
                            OFFSET -28.869000   0.000016  -0.000079
                            CHANNELS 3 Zrotation Xrotation Yrotation
                            JOINT RightFinger0
                            {
                                OFFSET  -2.044660  -2.323490   3.252850
                                CHANNELS 3 Zrotation Xrotation Yrotation
                                JOINT RightFinger01
                                {
                                    OFFSET  -3.088140   0.000000   0.000000
                                    CHANNELS 3 Zrotation Xrotation Yrotation
                                    JOINT RightFinger02
                                    {
                                        OFFSET  -2.639460   0.000000   0.000000
                                        CHANNELS 3 Zrotation Xrotation Yrotation
                                        End Site
                                        {
                                            OFFSET  -2.582190   0.000000   0.000000
                                        }
                                    }
                                }
                            }
                            JOINT RightFinger1
                            {
                                OFFSET  -8.364480   0.000000   3.252850
                                CHANNELS 3 Zrotation Xrotation Yrotation
                                JOINT RightFinger11
                                {
                                    OFFSET  -4.646930   0.000000   0.000000
                                    CHANNELS 3 Zrotation Xrotation Yrotation
                                    JOINT RightFinger12
                                    {
                                        OFFSET  -2.323470   0.000000   0.000000
                                        CHANNELS 3 Zrotation Xrotation Yrotation
                                        End Site
                                        {
                                            OFFSET  -2.273050   0.000000   0.000000
                                        }
                                    }
                                }
                            }
                            JOINT RightFinger2
                            {
                                OFFSET  -8.364480   0.000000   1.078090
                                CHANNELS 3 Zrotation Xrotation Yrotation
                                JOINT RightFinger21
                                {
                                    OFFSET  -5.111620   0.000000   0.000000
                                    CHANNELS 3 Zrotation Xrotation Yrotation
                                    JOINT RightFinger22
                                    {
                                        OFFSET  -2.788160   0.000000   0.000000
                                        CHANNELS 3 Zrotation Xrotation Yrotation
                                        End Site
                                        {
                                            OFFSET  -2.727660   0.000000   0.000000
                                        }
                                    }
                                }
                            }
                            JOINT RightFinger3
                            {
                                OFFSET  -7.899780   0.000000  -1.078090
                                CHANNELS 3 Zrotation Xrotation Yrotation
                                JOINT RightFinger31
                                {
                                    OFFSET  -4.646930   0.000000   0.000000
                                    CHANNELS 3 Zrotation Xrotation Yrotation
                                    JOINT RightFinger32
                                    {
                                        OFFSET  -2.323470   0.000000   0.000000
                                        CHANNELS 3 Zrotation Xrotation Yrotation
                                        End Site
                                        {
                                            OFFSET  -2.273050   0.000000   0.000000
                                        }
                                    }
                                }
                            }
                            JOINT RightFinger4
                            {
                                OFFSET  -7.435090   0.000000  -3.252850
                                CHANNELS 3 Zrotation Xrotation Yrotation
                                JOINT RightFinger41
                                {
                                    OFFSET  -3.717550   0.000000   0.000000
                                    CHANNELS 3 Zrotation Xrotation Yrotation
                                    JOINT RightFinger42
                                    {
                                        OFFSET  -1.858770   0.000000   0.000000
                                        CHANNELS 3 Zrotation Xrotation Yrotation
                                        End Site
                                        {
                                            OFFSET  -1.818440   0.000000   0.000000
                                        }
                                    }
                                }
                            }
                        }
                    }
                }
            }
        }
    }
    JOINT LeftHip
    {
        OFFSET   9.783040   0.000000   0.000000
        CHANNELS 3 Zrotation Xrotation Yrotation
        JOINT LeftKnee
        {
            OFFSET   0.000032 -41.789100  -0.002222
            CHANNELS 3 Zrotation Xrotation Yrotation
            JOINT LeftAnkle
            {
                OFFSET   0.000087 -41.133200  -0.000135
                CHANNELS 3 Zrotation Xrotation Yrotation
                JOINT LeftToe
                {
                    OFFSET   0.000000  -6.358960  14.674500
                    CHANNELS 3 Zrotation Xrotation Yrotation
                    End Site
                    {
                        OFFSET   0.000000   0.000000   3.913200
                    }
                }
            }
        }
    }
    JOINT RightHip
    {
        OFFSET  -9.783040   0.000000   0.000000
        CHANNELS 3 Zrotation Xrotation Yrotation
        JOINT RightKnee
        {
            OFFSET   0.000047 -41.789100  -0.000896
            CHANNELS 3 Zrotation Xrotation Yrotation
            JOINT RightAnkle
            {
                OFFSET  -0.000117 -41.133300  -0.000248
                CHANNELS 3 Zrotation Xrotation Yrotation
                JOINT RightToe
                {
                    OFFSET   0.000000  -6.358970  14.674500
                    CHANNELS 3 Zrotation Xrotation Yrotation
                    End Site
                    {
                        OFFSET   0.000000   0.000000   3.913200
                    }
                }
            }
        }
    }
}
MOTION
Frames: 4
Frame Time:   0.016667
  0.500831  89.484000 -10.476400  -1.848460  -7.485510  -0.074026   1.473240   5.233140  -0.455946   3.007370  10.452600  -1.054130  -1.021410  -1.398830  -0.023248  -1.677600  -2.833810   7.020060 -10.505100   2.538350  -0.902651 -69.430000  12.888100  -9.885270  -1.470950  -1.832240 -13.319500   2.789290  -7.793750   3.573080  40.974100  36.137400 -57.789600 -33.439900   0.012492   0.008303 -11.720300   0.005520   0.005424 -40.251400   1.686320  -1.990770 -32.956900   0.001102   0.004271 -23.183200   0.000698   0.001554 -29.427300  -1.994430   3.530430 -44.233100   0.000498   0.007577 -29.459300   0.002776   0.000160 -30.441500  -3.356180   5.688940 -45.912500  -0.000641  -0.003155 -30.577800   0.005213  -0.008004 -42.916000  -4.506400   4.830270 -64.659300   0.003966  -0.005878 -43.063100   0.002219  -0.003901   9.303260  -1.123390   7.896910  68.277700   4.816870   2.763890  -2.104270  -8.929800  10.239100  -4.756110  -8.400070   4.173750 -35.156800  33.232500  69.110400  35.579400   0.001279  -0.005616  12.789700   0.000958   0.001600  43.089100  11.495700  12.024200  36.248800   0.008052   0.012435  26.235400   0.004689   0.010642  43.287100   4.769580   5.047760  54.437400   0.006746  -0.000190  38.277200   0.002435   0.001580  35.505400   2.997130   4.186150  53.436900  -0.003307  -0.001561  35.578800   0.009492   0.007342  46.161100  -3.094100  -2.955200  69.362100   0.003158  -0.000896  46.195100   0.005264   0.005923   1.812430  10.236400   0.241591   0.000350   0.007736  10.143500  -1.422990  -2.889040   3.398550   0.000000   0.000000   0.000000   0.964688   8.743240  -1.573030  -1.673750   3.236350 -15.490500   1.226880  -3.683970  -0.850252   0.000000   0.000000   0.000000
  0.515393  89.484000 -10.477300  -1.846970  -7.487450  -0.089813   1.473270   5.235590  -0.455963   3.007460  10.457500  -1.054210  -1.021210  -1.408000  -0.023250  -1.677260  -2.852400   7.040320 -10.505200   2.523490  -0.902431 -69.431900  12.882400  -9.876860  -1.474480  -1.832470 -13.289700   2.771060  -7.800940   3.535370  40.965300  36.133800 -57.805400 -33.440300   0.012488   0.008303 -11.720300   0.005521   0.005423 -40.265500   1.705660  -2.012390 -32.968900   0.001103   0.004271 -23.194100   0.000699   0.001557 -29.443000  -1.981230   3.504920 -44.255600   0.000499   0.007576 -29.474300   0.002775   0.000157 -30.453400  -3.342620   5.663490 -45.928200  -0.000637  -0.003155 -30.588200   0.005211  -0.008000 -42.925300  -4.487440   4.808540 -64.670700   0.003962  -0.005875 -43.070700   0.002220  -0.003900   9.293990  -1.131410   7.914960  68.276100   4.831470   2.774030  -2.103970  -8.944870  10.224100  -4.755600  -8.373410   4.197710 -35.179800  33.255400  69.128700  35.568500   0.001286  -0.005617  12.784200   0.000955   0.001609  43.103900  11.495900  12.018200  36.260400   0.008051   0.012437  26.246400   0.004686   0.010644  43.294800   4.769590   5.045970  54.437400   0.006745  -0.000187  38.279300   0.002432   0.001579  35.505400   2.997120   4.186080  53.429300  -0.003306  -0.001562  35.578800   0.009489   0.007342  46.161100  -3.094140  -2.955200  69.362100   0.003157  -0.000898  46.195100   0.005264   0.005923   1.812160  10.218800   0.246184   0.006805   0.065564  10.146800  -1.433130  -2.918600   3.404650   0.000000   0.000000   0.000000   0.880005   8.751410  -1.655690  -1.588250   3.221540 -15.368000   1.215790  -3.680780  -0.861749  -0.000000   0.000000  -0.000000
  0.539472  89.484000 -10.480000  -1.842150  -7.497500  -0.111584   1.473350   5.243640  -0.456072   3.007770  10.473500  -1.054700  -1.021030  -1.426310  -0.023254  -1.678120  -2.889480   7.071370 -10.505500   2.497100  -0.902204 -69.432600  12.876900  -9.862090  -1.485000  -1.832690 -13.259800   2.739020  -7.812330   3.465350  40.968400  36.136300 -57.828100 -33.440600   0.012483   0.008302 -11.720300   0.005522   0.005422 -40.279000   1.733060  -2.043850 -32.980900   0.001108   0.004272 -23.204900   0.000701   0.001566 -29.459300  -1.962080   3.468830 -44.278200   0.000501   0.007570 -29.489300   0.002770   0.000150 -30.470300  -3.323740   5.627960 -45.950600  -0.000624  -0.003153 -30.603100   0.005206  -0.007988 -42.941100  -4.461220   4.777990 -64.691000   0.003951  -0.005869 -43.084200   0.002221  -0.003895   9.279420  -1.146120   7.945460  68.274100   4.851430   2.786110  -2.103680  -8.959940  10.209100  -4.759760  -8.346620   4.233970 -35.200700  33.282600  69.143400  35.552400   0.001293  -0.005620  12.776200   0.000953   0.001622  43.136600  11.496400  12.004800  36.286200   0.008050   0.012440  26.270800   0.004682   0.010646  43.324200   4.769630   5.040190  54.437400   0.006743  -0.000179  38.287000   0.002426   0.001579  35.505400   2.997100   4.185990  53.421600  -0.003305  -0.001567  35.578800   0.009485   0.007343  46.161100  -3.094210  -2.955220  69.362100   0.003156  -0.000904  46.195100   0.005261   0.005923   1.811530  10.201300   0.252861   0.013247   0.123390  10.153400  -1.448380  -2.948160   3.410740   0.000000   0.000000  -0.000000   0.743203   8.762760  -1.784790  -1.450720   3.207850 -15.170000   1.196780  -3.677580  -0.888790  -0.000000   0.000000   0.000000
  0.559757  89.485300 -10.484800  -1.832170  -7.521970  -0.119734   1.472220   5.259470  -0.457404   3.005850  10.505200  -1.057770  -1.022300  -1.448370  -0.023256  -1.681910  -2.934070   7.091450 -10.506800   2.471800  -0.902240 -69.426600  12.881400  -9.844910  -1.502540  -1.827780 -13.276100   2.707880  -7.818950   3.390900  41.010500  36.171300 -57.830600 -33.421500   0.012481   0.008260 -11.710700   0.005515   0.005439 -40.252300   1.744090  -2.058960 -32.959500   0.001120   0.004277 -23.185500   0.000700   0.001577 -29.449200  -1.953110   3.454420 -44.262000   0.000506   0.007556 -29.478500   0.002762   0.000141 -30.477100  -3.316070   5.613110 -45.959400  -0.000601  -0.003147 -30.608900   0.005198  -0.007968 -42.955800  -4.451170   4.764480 -64.711500   0.003934  -0.005862 -43.097900   0.002222  -0.003884   9.269300  -1.160870   7.972240  68.275200   4.856820   2.787980  -2.109580  -8.950270  10.226900  -4.784370  -8.352810   4.256040 -35.211700  33.286400  69.126100  35.542800   0.001294  -0.005646  12.771400   0.000956   0.001631  43.181000  11.497200  11.986800  36.321100   0.008050   0.012443  26.303900   0.004683   0.010646  43.387100   4.769710   5.028800  54.437400   0.006739  -0.000165  38.303500   0.002425   0.001574  35.511600   2.997070   4.185940  53.431000  -0.003306  -0.001580  35.585100   0.009487   0.007344  46.167500  -3.094230  -2.955240  69.371500   0.003155  -0.000914  46.201400   0.005254   0.005919   1.810370  10.238700   0.255195   0.019055   0.086823  10.162800  -1.455510  -2.926490   3.407710  -0.000000   0.000000   0.000000   0.636406   8.766760  -1.875620  -1.345090   3.230280 -15.011900   1.180320  -3.688240  -0.932597  -0.000000   0.000000  -0.000000
